<?xml version="1.0"?>
<svg width="16" height="16" xmlns="http://www.w3.org/2000/svg" xmlns:svg="http://www.w3.org/2000/svg" class="bi bi-7-square">
 <g class="layer">
  <title>Layer 1</title>
  <path d="m3.12,3.67l0,-1.64l9.82,0l0,1.7l-6.03,10.15l-2.57,0l6.12,-10.1l0,-0.1l-7.34,0z" fill="#00bf00" id="svg_1"/>
  <path d="m0,2a2,2 0 0 1 2,-2l12,0a2,2 0 0 1 2,2l0,12a2,2 0 0 1 -2,2l-12,0a2,2 0 0 1 -2,-2l0,-12zm15,0a1,1 0 0 0 -1,-1l-12,0a1,1 0 0 0 -1,1l0,12a1,1 0 0 0 1,1l12,0a1,1 0 0 0 1,-1l0,-12z" fill="#00bf00" id="svg_2"/>
 </g>

</svg>